<svg width="22" height="22" viewBox="0 0 22 22" fill="none" xmlns="http://www.w3.org/2000/svg">
<g clip-path="url(#clip0_720_1354)">
<path d="M14.0017 10.6686C13.1449 10.6686 12.3165 10.286 11.668 9.59172C11.0375 8.91452 10.6524 8.01145 10.5845 7.04962C10.512 6.02361 10.825 5.08012 11.4655 4.3925C12.106 3.70488 13.0016 3.33398 14.0017 3.33398C14.9948 3.33398 15.8929 3.71155 16.5313 4.3975C17.176 5.09012 17.4898 6.03195 17.4173 7.0492C17.3477 8.01229 16.9631 8.91494 16.3338 9.59131C15.687 10.286 14.859 10.6686 14.0017 10.6686Z" fill="#5FDA78"/>
<path d="M19.4963 18.003H8.50897C8.33232 18.0039 8.15781 17.9643 7.99886 17.8872C7.83992 17.8102 7.70078 17.6976 7.59215 17.5583C7.47692 17.4073 7.39735 17.2322 7.35939 17.0461C7.32143 16.8599 7.32606 16.6676 7.37294 16.4836C7.72384 15.0746 8.59315 13.906 9.88671 13.1046C11.0348 12.3937 12.4963 12.002 14.0024 12.002C15.5381 12.002 16.9613 12.377 18.116 13.0876C19.4125 13.8848 20.2831 15.06 20.6323 16.4861C20.6786 16.6703 20.6827 16.8626 20.6443 17.0486C20.606 17.2346 20.526 17.4096 20.4106 17.5604C20.3021 17.6991 20.1633 17.811 20.0048 17.8878C19.8463 17.9645 19.6723 18.0039 19.4963 18.003Z" fill="#5FDA78"/>
<path d="M6.12576 10.8352C4.65926 10.8352 3.36987 9.47164 3.25027 7.79593C3.19109 6.93745 3.45863 6.14357 4.00039 5.56138C4.53632 4.98503 5.29228 4.66748 6.12576 4.66748C6.95923 4.66748 7.70936 4.9867 8.2482 5.56638C8.79413 6.15315 9.06084 6.94537 8.99833 7.79677C8.87873 9.47205 7.58976 10.8352 6.12576 10.8352Z" fill="#5FDA78"/>
<path d="M8.86154 12.1457C8.1285 11.7874 7.17708 11.6082 6.12565 11.6082C4.89794 11.6082 3.70566 11.9282 2.76799 12.5091C1.7049 13.1688 0.989774 14.1294 0.700974 15.2892C0.658711 15.456 0.654713 15.6302 0.689281 15.7988C0.723849 15.9674 0.796087 16.126 0.900592 16.2627C0.999754 16.39 1.12679 16.4929 1.27193 16.5634C1.41708 16.6339 1.57646 16.6702 1.73782 16.6694H6.36361C6.44169 16.6694 6.51728 16.642 6.57722 16.592C6.63715 16.5419 6.67763 16.4725 6.69158 16.3956C6.69617 16.3694 6.702 16.3431 6.70867 16.3173C7.06206 14.8979 7.89012 13.6985 9.11366 12.8242C9.15867 12.7918 9.19486 12.7486 9.21897 12.6986C9.24308 12.6487 9.25434 12.5935 9.25174 12.5381C9.24913 12.4827 9.23273 12.4288 9.20404 12.3813C9.17535 12.3338 9.13526 12.2943 9.08741 12.2662C9.02198 12.2278 8.94697 12.1874 8.86154 12.1457Z" fill="#5FDA78"/>
</g>
<defs>
<clipPath id="clip0_720_1354">
<rect width="21.337" height="21.337" fill="white"/>
</clipPath>
</defs>
</svg>
