<svg width="24" height="24" viewBox="0 0 24 24" fill="none" xmlns="http://www.w3.org/2000/svg">
<path fill-rule="evenodd" clip-rule="evenodd" d="M7.90886 2.88029C8.19293 3.16435 8.19293 3.62491 7.90886 3.90898L4.05883 7.75902L7.90886 11.6091C8.19293 11.8931 8.19293 12.3537 7.90886 12.6377C7.6248 12.9218 7.16423 12.9218 6.88017 12.6377L2.51578 8.27336C2.23172 7.9893 2.23172 7.52874 2.51578 7.24467L6.88017 2.88029C7.16423 2.59622 7.6248 2.59622 7.90886 2.88029Z" fill="#5FDA78"/>
<path fill-rule="evenodd" clip-rule="evenodd" d="M2.91016 7.75889C2.91016 7.35716 3.23582 7.03149 3.63755 7.03149H12.4876C12.8893 7.03149 13.215 7.35716 13.215 7.75889C13.215 8.16062 12.8893 8.48629 12.4876 8.48629H3.63755C3.23582 8.48629 2.91016 8.16062 2.91016 7.75889Z" fill="#5FDA78"/>
<path fill-rule="evenodd" clip-rule="evenodd" d="M15.3685 10.6381C15.0844 10.9222 15.0844 11.3827 15.3685 11.6668L19.2185 15.5168L15.3685 19.3669C15.0844 19.6509 15.0844 20.1115 15.3685 20.3956C15.6525 20.6796 16.1131 20.6796 16.3972 20.3956L20.7616 16.0312C21.0456 15.7471 21.0456 15.2865 20.7616 15.0025L16.3972 10.6381C16.1131 10.354 15.6525 10.354 15.3685 10.6381Z" fill="#5FDA78"/>
<path fill-rule="evenodd" clip-rule="evenodd" d="M20.3672 15.5167C20.3672 15.115 20.0415 14.7893 19.6398 14.7893H10.7898C10.3881 14.7893 10.0624 15.115 10.0624 15.5167C10.0624 15.9184 10.3881 16.2441 10.7898 16.2441H19.6398C20.0415 16.2441 20.3672 15.9184 20.3672 15.5167Z" fill="#5FDA78"/>
</svg>
