<svg width="20" height="20" viewBox="0 0 20 20" fill="none" xmlns="http://www.w3.org/2000/svg">
<path d="M10 6.25C10.6904 6.25 11.25 6.80964 11.25 7.5C11.25 8.19036 10.6904 8.75 10 8.75C9.30964 8.75 8.75 8.19036 8.75 7.5C8.75 6.80964 9.30964 6.25 10 6.25Z" fill="#5FDA78"/>
<path d="M15.2621 13.7495C15.1091 14.0844 14.8974 14.3892 14.6371 14.6495L12.8746 16.4183C12.2886 17.0041 11.4939 17.3333 10.6652 17.3333C9.8366 17.3333 9.04188 17.0041 8.45586 16.4183L5.78711 13.7495H15.2621Z" fill="#5FDA78"/>
<path d="M15.625 12.4998H4.375C3.5462 12.4998 2.75134 12.1705 2.16529 11.5845C1.57924 10.9984 1.25 10.2036 1.25 9.37476V5.62476C1.25 4.79595 1.57924 4.0011 2.16529 3.41505C2.75134 2.829 3.5462 2.49976 4.375 2.49976H15.625C16.4538 2.49976 17.2487 2.829 17.8347 3.41505C18.4208 4.0011 18.75 4.79595 18.75 5.62476V9.37476C18.75 10.2036 18.4208 10.9984 17.8347 11.5845C17.2487 12.1705 16.4538 12.4998 15.625 12.4998ZM10 4.99976C9.50555 4.99976 9.0222 5.14638 8.61107 5.42108C8.19995 5.69579 7.87952 6.08623 7.6903 6.54305C7.50108 6.99986 7.45157 7.50253 7.54804 7.98748C7.6445 8.47243 7.8826 8.91789 8.23223 9.26752C8.58186 9.61715 9.02732 9.85526 9.51227 9.95172C9.99723 10.0482 10.4999 9.99867 10.9567 9.80945C11.4135 9.62024 11.804 9.2998 12.0787 8.88868C12.3534 8.47756 12.5 7.99421 12.5 7.49976C12.5 6.83671 12.2366 6.20083 11.7678 5.73199C11.2989 5.26315 10.663 4.99976 10 4.99976Z" fill="#5FDA78"/>
</svg>
