<svg width="21" height="21" viewBox="0 0 21 21" fill="none" xmlns="http://www.w3.org/2000/svg">
<path d="M18.9463 7.48364V8.08691H2.05469V7.48364C2.05469 6.68365 2.37248 5.91643 2.93816 5.35076C3.50384 4.78508 4.27106 4.46729 5.07105 4.46729H15.9299C16.7299 4.46729 17.4971 4.78508 18.0628 5.35076C18.6285 5.91643 18.9463 6.68365 18.9463 7.48364Z" fill="#5FDA78"/>
<path d="M2.05469 9.29346V13.5164C2.05469 14.3163 2.37248 15.0836 2.93816 15.6492C3.50384 16.2149 4.27106 16.5327 5.07105 16.5327H15.9299C16.7299 16.5327 17.4971 16.2149 18.0628 15.6492C18.6285 15.0836 18.9463 14.3163 18.9463 13.5164V9.29346H2.05469ZM15.9299 14.7229H13.5168C13.3568 14.7229 13.2034 14.6593 13.0903 14.5462C12.9771 14.4331 12.9136 14.2796 12.9136 14.1196C12.9136 13.9596 12.9771 13.8062 13.0903 13.6931C13.2034 13.5799 13.3568 13.5164 13.5168 13.5164H15.9299C16.0899 13.5164 16.2434 13.5799 16.3565 13.6931C16.4696 13.8062 16.5332 13.9596 16.5332 14.1196C16.5332 14.2796 16.4696 14.4331 16.3565 14.5462C16.2434 14.6593 16.0899 14.7229 15.9299 14.7229Z" fill="#5FDA78"/>
</svg>
