<svg width="21" height="21" viewBox="0 0 21 21" fill="none" xmlns="http://www.w3.org/2000/svg">
<path d="M8.72949 11.3477C12.1039 11.3477 14.8398 13.3026 14.8398 15.7129C14.8396 16.6768 14.0577 17.458 13.0938 17.458H4.36523C3.40122 17.458 2.61937 16.6768 2.61914 15.7129C2.61914 13.3025 5.35496 11.3477 8.72949 11.3477ZM8.72949 3.49219C10.6576 3.4923 12.2205 5.0553 12.2207 6.9834C12.2207 8.91163 10.6577 10.4755 8.72949 10.4756C6.80119 10.4756 5.2373 8.9117 5.2373 6.9834C5.23746 5.05523 6.80128 3.49219 8.72949 3.49219ZM15.7119 5.23828C16.194 5.23828 16.585 5.62925 16.585 6.11133V6.98438H17.458C17.9399 6.98438 18.3308 7.37458 18.3311 7.85645C18.3311 8.33852 17.9401 8.72949 17.458 8.72949H16.585V9.60254C16.585 10.0846 16.194 10.4756 15.7119 10.4756C15.2301 10.4753 14.8398 10.0845 14.8398 9.60254V8.72949H13.9668C13.4847 8.72949 13.0938 8.33852 13.0938 7.85645C13.094 7.37458 13.4849 6.98438 13.9668 6.98438H14.8398V6.11133C14.8398 5.62941 15.2301 5.23853 15.7119 5.23828Z" fill="#5FDA78"/>
</svg>
