<svg width="32" height="32" viewBox="0 0 32 32" fill="none" xmlns="http://www.w3.org/2000/svg">
<path d="M13.3327 16.0007C11.866 16.0007 10.6105 15.4784 9.56602 14.434C8.52157 13.3895 7.99935 12.134 7.99935 10.6673C7.99935 9.20065 8.52157 7.9451 9.56602 6.90065C10.6105 5.85621 11.866 5.33398 13.3327 5.33398C14.7993 5.33398 16.0549 5.85621 17.0993 6.90065C18.1438 7.9451 18.666 9.20065 18.666 10.6673C18.666 12.134 18.1438 13.3895 17.0993 14.434C16.0549 15.4784 14.7993 16.0007 13.3327 16.0007ZM2.66602 26.6673V22.934C2.66602 22.2006 2.8549 21.5118 3.23268 20.8673C3.61046 20.2229 4.13268 19.734 4.79935 19.4007C5.93268 18.8229 7.21046 18.334 8.63268 17.934C10.0549 17.534 11.6216 17.334 13.3327 17.334H13.7993C13.9327 17.334 14.066 17.3562 14.1993 17.4007C14.0216 17.8007 13.8716 18.2173 13.7493 18.6507C13.6271 19.084 13.5327 19.534 13.466 20.0007H13.3327C11.7549 20.0007 10.3382 20.2007 9.08268 20.6006C7.82713 21.0007 6.79935 21.4007 5.99935 21.8006C5.79935 21.9118 5.63824 22.0673 5.51602 22.2673C5.39379 22.4673 5.33268 22.6895 5.33268 22.934V24.0007H13.7327C13.866 24.4673 14.0438 24.9284 14.266 25.384C14.4882 25.8395 14.7327 26.2673 14.9993 26.6673H2.66602ZM21.3327 28.0007L20.9327 26.0007C20.666 25.8895 20.416 25.7729 20.1827 25.6507C19.9494 25.5284 19.7105 25.3784 19.466 25.2006L17.5327 25.8006L16.1993 23.534L17.7327 22.2006C17.6882 21.8895 17.666 21.6007 17.666 21.334C17.666 21.0673 17.6882 20.7784 17.7327 20.4673L16.1993 19.134L17.5327 16.8673L19.466 17.4673C19.7105 17.2895 19.9494 17.1395 20.1827 17.0173C20.416 16.8951 20.666 16.7784 20.9327 16.6673L21.3327 14.6673H23.9993L24.3993 16.6673C24.666 16.7784 24.916 16.9007 25.1493 17.034C25.3827 17.1673 25.6216 17.334 25.866 17.534L27.7994 16.8673L29.1327 19.2007L27.5993 20.534C27.6438 20.8006 27.666 21.0784 27.666 21.3673C27.666 21.6562 27.6438 21.934 27.5993 22.2006L29.1327 23.534L27.7994 25.8006L25.866 25.2006C25.6216 25.3784 25.3827 25.5284 25.1493 25.6507C24.916 25.7729 24.666 25.8895 24.3993 26.0007L23.9993 28.0007H21.3327ZM22.666 24.0007C23.3993 24.0007 24.0271 23.7395 24.5494 23.2173C25.0716 22.6951 25.3327 22.0673 25.3327 21.334C25.3327 20.6006 25.0716 19.9729 24.5494 19.4507C24.0271 18.9284 23.3993 18.6673 22.666 18.6673C21.9327 18.6673 21.3049 18.9284 20.7827 19.4507C20.2605 19.9729 19.9993 20.6006 19.9993 21.334C19.9993 22.0673 20.2605 22.6951 20.7827 23.2173C21.3049 23.7395 21.9327 24.0007 22.666 24.0007ZM13.3327 13.334C14.066 13.334 14.6938 13.0729 15.216 12.5507C15.7382 12.0284 15.9993 11.4007 15.9993 10.6673C15.9993 9.93398 15.7382 9.30621 15.216 8.78398C14.6938 8.26176 14.066 8.00065 13.3327 8.00065C12.5993 8.00065 11.9716 8.26176 11.4493 8.78398C10.9271 9.30621 10.666 9.93398 10.666 10.6673C10.666 11.4007 10.9271 12.0284 11.4493 12.5507C11.9716 13.0729 12.5993 13.334 13.3327 13.334Z" fill="#C5C5C5"/>
</svg>
